<svg version="1.1" id="PRINT" xmlns="http://www.w3.org/2000/svg" xmlns:xlink="http://www.w3.org/1999/xlink" x="0px" y="0px"
	 viewBox="0 0 250 125" style="enable-background:new 0 0 250 125;" xml:space="preserve">
<style type="text/css">
	.st0{fill:#FFFFFF;}
	.st1{fill:#E74325;}
	.st2{fill:#F9B4AE;}
	.st3{fill:none;}
	.st4{fill:#E07365;}
</style>
<circle class="st0" cx="12.21" cy="97.52" r="4.15"/>
<circle class="st0" cx="41.29" cy="62.99" r="23.15"/>
<path class="st1" d="M72.53,72.83V35.67h12.02v34.88c0,5.56,4.64,9.84,10.66,9.84c6.1,0,10.75-4.28,10.75-9.84V35.67h12.02v37.16
	c0,10.29-9.84,18.21-22.77,18.21C82.45,91.04,72.53,83.12,72.53,72.83z"/>
<path class="st1" d="M123.44,35.67h12.02v54.64h-12.02V35.67z"/>
<path class="st1" d="M139.1,62.99c0-15.48,12.57-28.05,28.05-28.05c10.84,0,20.22,6.1,24.86,15.03l-10.38,5.37
	c-2.64-5.19-8.01-8.65-14.48-8.65c-9.2,0-16.21,7.1-16.21,16.3s7.01,16.3,16.21,16.3c6.47,0,11.84-3.46,14.48-8.65l10.38,5.37
	c-4.64,8.92-14.02,15.03-24.86,15.03C151.67,91.04,139.1,78.48,139.1,62.99z"/>
<path class="st1" d="M208.04,65.36h-1.73v24.95h-12.02V35.67h12.02v19.31h2.09l17.85-19.31h15.48l-23.59,24.32l26.32,30.33h-16.03
	L208.04,65.36z"/>
<g>
	<g>
		<path class="st2" d="M3.68,98.03l8.62,8.37l9.06-9.14l-8.62-8.38L3.68,98.03z M15.51,97.36c-0.17,1.76-2.15,3.49-3.92,3.43
			c-1.3-0.05-2.05-0.86-1.98-2.16c0.09-1.76,1.93-3.56,3.69-3.63C14.78,94.95,15.65,95.88,15.51,97.36z"/>
		<path class="st2" d="M38.34,49.24c-4.27,0-7.73,3.46-7.73,7.73c0,4.27,3.46,7.73,7.73,7.73s7.73-3.46,7.73-7.73
			C46.07,52.7,42.61,49.24,38.34,49.24z M43.08,57.46c-0.5,0.03-0.8-0.28-0.86-0.85c-0.16-1.63-0.95-2.85-2.37-3.67
			c-0.57-0.32-1.19-0.42-1.84-0.45c-0.41-0.02-0.72-0.32-0.75-0.69c-0.03-0.41,0.2-0.75,0.58-0.83c0.14-0.03,0.29-0.02,0.43-0.03
			c2.13,0.15,3.68,1.2,4.72,3.03c0.45,0.79,0.73,1.64,0.77,2.56C43.8,57.08,43.52,57.43,43.08,57.46z"/>
	</g>
</g>
<g>
	<path class="st3" d="M61.73,57c0-2.22-0.73-4.19-2.19-5.84c-2.22-2.53-4.75-4.49-8.37-4.47c-2.04,0.01-3.88-0.76-5.66-1.71
		c-0.98-0.52-1.97-1.05-2.99-1.48c-2.05-0.85-4.16-1.4-6.41-1.07c-2.77,0.41-4.59,2.23-6.34,4.21c-1.61,1.81-3.27,3.59-5,5.28
		c-1.71,1.66-3.36,3.33-4.34,5.54c-1.06,2.38-0.93,4.7,0.66,6.79c0.73,0.95,1.62,1.82,2.57,2.56c1.29,1.01,2.34,2.14,3.13,3.45
		c0.15,0.3,0.31,0.6,0.48,0.89c0.43,0.9,0.75,1.88,0.93,2.94c0.52,3.08,2.32,5.42,4.55,7.46c1.33,1.23,2.87,1.41,4.49,0.55
		c0.66-0.35,1.27-0.78,1.94-1.09c1.06-0.49,2.13-1.04,3.25-1.35c2.21-0.61,4.35,0.11,6.46,0.67c3.39,0.91,5.54,0.12,7.4-2.87
		c1.83-2.93,2.7-6.17,2.8-9.6c0.06-2.04,0.32-3.95,1.33-5.82C61.24,60.54,61.82,57.03,61.73,57z"/>
	<path class="st4" d="M20.05,81.3l-5.6,5.76l8.62,8.38l6.68-6.87C25.15,86.48,21.91,83.43,20.05,81.3z"/>
	<path class="st1" d="M41.29,34.94c-15.48,0-28.05,12.57-28.05,28.05c0,5.88,1.82,11.33,4.91,15.84l14.85,10.96
		c2.62,0.81,5.4,1.25,8.28,1.25c2.19,0,4.37-0.27,6.37-0.73l0.28-0.14c4.04-0.98,7.73-2.83,10.87-5.35l0.32-0.16
		c6.19-5.1,10.2-12.93,10.2-21.67C69.34,47.51,56.86,34.94,41.29,34.94z M60.43,62.04c-1.01,1.88-1.27,3.79-1.33,5.82
		c-0.1,3.44-0.97,6.67-2.8,9.6c-1.86,2.99-4.01,3.78-7.4,2.87c-2.11-0.57-4.25-1.29-6.46-0.67c-1.12,0.31-2.19,0.85-3.25,1.35
		c-0.67,0.31-1.29,0.74-1.94,1.09c-1.62,0.86-3.16,0.68-4.49-0.55c-2.23-2.04-4.03-4.38-4.55-7.46c-0.18-1.07-0.5-2.04-0.93-2.94
		c-0.17-0.29-0.33-0.59-0.48-0.89c-0.79-1.31-1.84-2.44-3.13-3.45c-0.95-0.74-1.84-1.61-2.57-2.56c-1.59-2.09-1.72-4.4-0.66-6.79
		c0.98-2.21,2.63-3.88,4.34-5.54c1.74-1.69,3.39-3.47,5-5.28c1.75-1.97,3.57-3.8,6.34-4.21c2.25-0.33,4.36,0.21,6.41,1.07
		c1.02,0.43,2.01,0.95,2.99,1.48c1.77,0.95,3.62,1.72,5.66,1.71c3.62-0.02,6.15,1.95,8.37,4.47c1.45,1.65,2.19,3.62,2.19,5.84
		C61.82,57.03,61.24,60.54,60.43,62.04z"/>
	<path class="st1" d="M29.75,88.57c1.02,0.46,2.1,0.88,3.26,1.22l0,0C31.9,89.44,30.81,89.03,29.75,88.57L29.75,88.57z"/>
	<path class="st1" d="M18.15,78.83L18.15,78.83c0,0,0.63,1.02,1.9,2.47l0,0C19.38,80.51,18.74,79.69,18.15,78.83z"/>
	<path class="st1" d="M20.06,81.3L20.06,81.3c1.86,2.13,5.09,5.18,9.7,7.27l0.01-0.01c1.05,0.47,2.13,0.89,3.25,1.23L18.15,78.83
		C18.74,79.69,19.38,80.51,20.06,81.3z"/>
</g>
</svg>
